<svg xmlns="http://www.w3.org/2000/svg" viewBox="0 0 512 512" width="512" height="512">
  <rect width="512" height="512" fill="#0f172a"/>
  <g stroke="#e2e8f0" fill="none" transform="translate(32,32) scale(0.875)">
    <rect x="64" y="64" width="384" height="384" rx="8" stroke-width="10"/>
    <line x1="64" y1="192" x2="448" y2="192" stroke-width="10"/>
    <line x1="64" y1="320" x2="448" y2="320" stroke-width="10"/>
    <line x1="192" y1="64" x2="192" y2="448" stroke-width="10"/>
    <line x1="320" y1="64" x2="320" y2="448" stroke-width="10"/>
    <line x1="64" y1="128" x2="448" y2="128" stroke-width="4"/>
    <line x1="64" y1="256" x2="448" y2="256" stroke-width="4"/>
    <line x1="64" y1="384" x2="448" y2="384" stroke-width="4"/>
    <line x1="128" y1="64" x2="128" y2="448" stroke-width="4"/>
    <line x1="256" y1="64" x2="256" y2="448" stroke-width="4"/>
    <line x1="384" y1="64" x2="384" y2="448" stroke-width="4"/>
  </g>
  <g font-family="system-ui, sans-serif" font-size="49" font-weight="600" fill="#38bdf8" text-anchor="middle" transform="translate(32,32) scale(0.875)">
    <text x="96" y="115">5</text>
    <text x="288" y="243">7</text>
    <text x="416" y="371">3</text>
    <text x="224" y="435">9</text>
  </g>
</svg>
